<?xml version="1.0" encoding="utf-8"?>
<!-- Generator: Adobe Illustrator 22.1.0, SVG Export Plug-In . SVG Version: 6.00 Build 0)  -->
<svg version="1.1" id="图层_1" xmlns="http://www.w3.org/2000/svg" xmlns:xlink="http://www.w3.org/1999/xlink" x="0px" y="0px"
	 viewBox="0 0 304.8 333.3" style="enable-background:new 0 0 304.8 333.3;" xml:space="preserve">
<style type="text/css">
	.st0{fill:#26B7BC;}
	.st1{fill:#FFFFFF;}
	.st2{opacity:0.7;fill:url(#XMLID_3_);enable-background:new    ;}
	.st3{opacity:0.7;fill:url(#XMLID_4_);enable-background:new    ;}
</style>
<g id="XMLID_528_">
	<path id="XMLID_538_" class="st0" d="M156.4,189c0.8,0,1.4-0.6,1.4-1.4v-60.1c0-2.2-2.9-3.1-4.1-1.3l-43.6,59.3
		c-1,1.5,0.1,3.5,1.9,3.5H156.4z"/>
	<path id="XMLID_536_" class="st1" d="M157.8,207.6H66.9l76.4-102.1c0.4-0.6,0-1.4-0.7-1.4h-101v21.2h60.3L41.6,206v22.7l0,0h116.2
		l0,0V207.6z"/>
	<path id="XMLID_535_" class="st1" d="M198.6,196.3V189h49.7l14.4-21.1c0,0,0-0.1-0.1-0.1h-63.9V126c0-0.5,0-0.5,0-0.9h49.6
		l14.4-21.1v-0.1h-85.2v85h17.4l0,0l-17.4,18.5v21.2h84.3v-21.2h-63.3L198.6,196.3L198.6,196.3z"/>
	
		<linearGradient id="XMLID_3_" gradientUnits="userSpaceOnUse" x1="83.1818" y1="164.7257" x2="51.1905" y2="122.0707" gradientTransform="matrix(1 0 0 -1 0 334)">
		<stop  offset="0" style="stop-color:#FFFFFF"/>
		<stop  offset="1" style="stop-color:#717071"/>
	</linearGradient>
	<polygon id="XMLID_533_" class="st2" points="66.9,207.6 42.2,207.3 77.3,160.6 101.9,160.8 	"/>
	
		<linearGradient id="XMLID_4_" gradientUnits="userSpaceOnUse" x1="229.0694" y1="213.732" x2="205.1935" y2="228.3975" gradientTransform="matrix(1 0 0 -1 0 334)">
		<stop  offset="0" style="stop-color:#FFFFFF"/>
		<stop  offset="1" style="stop-color:#717071"/>
	</linearGradient>
	<polygon id="XMLID_529_" class="st3" points="198.7,125.2 213.6,105.3 243.1,105.3 243.1,125.2 	"/>
	<g id="XMLID_286_">
		<g id="XMLID_287_">
			<path id="XMLID_1_" class="st1" d="M152.4,13.9c2.1,0,4.2,0.5,6.1,1.4l124.9,62.1c4.7,2.3,7.5,7,7.5,12.2v154.1
				c0,5.2-2.9,9.9-7.5,12.2L158.4,318c-1.8,0.9-3.9,1.4-6,1.4c-2.1,0-4.2-0.5-6.1-1.4L21.4,255.9c-4.6-2.3-7.5-7-7.5-12.2V89.6
				c0-5.2,2.9-9.9,7.5-12.2l124.9-62.1C148.2,14.4,150.3,13.9,152.4,13.9 M152.4,0c-4.2,0-8.4,1-12.2,2.9L15.3,65
				C5.9,69.7,0,79.1,0,89.6v154.1c0,10.5,5.8,19.9,15.2,24.6l124.9,62.1c3.8,1.9,8,2.9,12.2,2.9s8.4-1,12.2-2.9l124.9-62.1
				c9.4-4.7,15.2-14.1,15.2-24.6V89.6c0-10.5-5.8-19.9-15.2-24.6L164.6,2.9C160.8,1,156.6,0,152.4,0L152.4,0z"/>
		</g>
	</g>
</g>
</svg>
