<?xml version="1.0" standalone="no"?><!DOCTYPE svg PUBLIC "-//W3C//DTD SVG 1.1//EN" "http://www.w3.org/Graphics/SVG/1.1/DTD/svg11.dtd"><svg t="1559704775113" class="icon" style="" viewBox="0 0 1024 1024" version="1.1" xmlns="http://www.w3.org/2000/svg" p-id="3045" xmlns:xlink="http://www.w3.org/1999/xlink" width="200" height="200"><defs><style type="text/css"></style></defs><path d="M989.671066 641.555964H34.328934c-16.895118-0.511973-31.23037 12.287359-31.742343 29.182476v63.99666c0.511973 16.895118 14.335252 30.206423 31.23037 29.69445H569.85298v228.34008c1.023947 17.407091 15.871172 31.23037 33.278263 30.206423 7.167626-0.511973 13.823278-3.07184 18.943011-7.167625l387.563769-322.03119c12.799332-10.751439 14.335252-29.69445 3.583813-41.981809-5.631706-6.655653-14.335252-10.751439-23.55077-10.239465z m0-386.539823H454.14702V30.259873c-1.023947-17.407091-15.871172-31.23037-33.278263-30.206423-7.167626 0.511973-13.823278 3.07184-18.943011 7.167626l-387.563769 322.543163c-12.799332 10.239465-14.847225 28.670503-5.119733 40.957862 6.143679 7.679599 15.359198 11.775385 25.08669 11.263412h954.830158c16.895118 0.511973 31.23037-12.287359 31.742343-29.182477V285.222564c-0.511973-16.895118-14.335252-30.206423-31.230369-29.69445 0.511973-0.511973 0-0.511973 0-0.511973z" fill="#ffffff" p-id="3046"></path></svg>