<?xml version="1.0" standalone="no"?><!DOCTYPE svg PUBLIC "-//W3C//DTD SVG 1.1//EN" "http://www.w3.org/Graphics/SVG/1.1/DTD/svg11.dtd"><svg t="1559548927588" class="icon" style="" viewBox="0 0 1028 1024" version="1.1" xmlns="http://www.w3.org/2000/svg" p-id="5268" xmlns:xlink="http://www.w3.org/1999/xlink" width="200.78125" height="200"><defs><style type="text/css"></style></defs><path d="M889.856 137.216c7.168-8.192 10.752-18.944 10.24-29.696-0.512-10.752-5.632-20.992-13.824-28.16-7.68-6.656-17.408-10.24-27.648-10.24h-0.512c-2.048-0.512-4.096-0.512-6.656-0.512H40.96c-22.528 0-40.96 18.432-40.96 40.96 0 10.752 4.096 20.48 11.776 28.672l281.6 315.904V814.08c0 18.432 12.288 34.304 29.696 39.424l225.28 99.328c5.12 2.56 10.752 3.584 16.384 3.584 16.384 0 31.232-9.728 37.376-24.576 2.56-6.144 3.584-12.288 3.584-18.432V456.192l284.16-318.976zM351.232 395.264L132.608 150.528h635.392l-219.648 246.784-197.12-2.048z m172.544 83.456v373.248l-148.48-65.536V477.696l148.48 1.024z m504.32 399.872c0 22.528-18.432 40.96-40.96 40.96H718.848c-22.528 0-40.96-18.432-40.96-40.96s18.432-40.96 40.96-40.96h268.288c22.528 0 40.96 18.432 40.96 40.96z" fill="#ffffff" p-id="5269"></path><path d="M1028.096 708.096c0 22.528-18.432 40.96-40.96 40.96H718.848c-22.528 0-40.96-18.432-40.96-40.96s18.432-40.96 40.96-40.96h268.288c22.528-0.512 40.96 17.92 40.96 40.96z m0-171.008c0 22.528-18.432 40.96-40.96 40.96H718.848c-22.528 0-40.96-18.432-40.96-40.96s18.432-40.96 40.96-40.96h268.288c22.528 0 40.96 18.432 40.96 40.96z" fill="#ffffff" p-id="5270"></path></svg>