<?xml version="1.0" standalone="no"?><!DOCTYPE svg PUBLIC "-//W3C//DTD SVG 1.1//EN" "http://www.w3.org/Graphics/SVG/1.1/DTD/svg11.dtd"><svg t="1563521255231" class="icon" viewBox="0 0 1024 1024" version="1.1" xmlns="http://www.w3.org/2000/svg" p-id="8483" xmlns:xlink="http://www.w3.org/1999/xlink" width="200" height="200"><defs><style type="text/css"></style></defs><path d="M513 573.8c-20.4 0-37.1 14.3-37.1 31.9V733c0 17.5 16.7 31.8 37.1 31.8 20.4 0 37.1-14.3 37.1-31.8V605.7c0-17.6-16.7-31.9-37.1-31.9z" p-id="8484" fill="#a5b3d1"></path><path d="M883.7 382.7h-74.1V319c0-140.1-133.5-254.8-296.6-254.8-163.1 0-296.6 114.7-296.6 254.8v63.7h-74.1c-40.8 0-74.1 28.7-74.1 63.7v382.2c0 70.1 66.7 127.4 148.3 127.4h593.1c81.6 0 148.3-57.3 148.3-127.4V446.4c0-35-33.4-63.7-74.2-63.7zM290.6 319c0-105.1 100.1-191.1 222.4-191.1 122.3 0 222.4 86 222.4 191.1v63.7H290.6V319z m519 573.3H216.4c-40.8 0-74.1-28.7-74.1-63.7V478.3c0-17.5 16.7-31.8 37.1-31.8h667.2c20.4 0 37.1 14.3 37.1 31.8v350.3c0 35-33.4 63.7-74.1 63.7z" p-id="8485" fill="#a5b3d1"></path></svg>