<?xml version="1.0" standalone="no"?><!DOCTYPE svg PUBLIC "-//W3C//DTD SVG 1.1//EN" "http://www.w3.org/Graphics/SVG/1.1/DTD/svg11.dtd"><svg t="1559528422013" class="icon" style="" viewBox="0 0 1024 1024" version="1.1" xmlns="http://www.w3.org/2000/svg" p-id="4474" xmlns:xlink="http://www.w3.org/1999/xlink" width="200" height="200"><defs><style type="text/css"></style></defs><path d="M0 485.324264a511.945427 485.324264 0 1 0 1023.890853 0 511.945427 485.324264 0 1 0-1023.890853 0Z" fill="#FFFFFF" p-id="4475"></path><path d="M390.102415 644.539292c-61.433451 36.860071-70.136523-20.989762-70.136523-20.989762L243.174078 430.034158c-29.692835-92.150177 25.597271-41.46758 25.597271-41.467579s47.098979 38.907852 83.447105 62.457342c35.83618 23.54949 76.791814 7.167236 76.791814 7.167236l502.218463-250.853259C838.054663 81.399323 684.982981 0 511.945427 0 229.351551 0 0 217.064861 0 485.324264c0 154.095573 75.767923 291.296948 194.027317 380.375452L172.525609 998.293582s-10.238909 38.907852 25.597271 20.989762c24.57338-12.28669 87.030723-56.313997 124.402739-82.935159 60.40956 23.037544 124.402739 34.300344 189.419808 34.300344 282.593875 0 511.945427-217.064861 511.945426-485.324265 0-77.815705-19.453926-151.023901-53.75427-216.04097C810.40961 373.720161 438.225285 615.870348 390.102415 644.539292z" fill="#41B035" p-id="4476"></path></svg>