<?xml version="1.0" standalone="no"?><!DOCTYPE svg PUBLIC "-//W3C//DTD SVG 1.1//EN" "http://www.w3.org/Graphics/SVG/1.1/DTD/svg11.dtd"><svg t="1559626987250" class="icon" style="" viewBox="0 0 1024 1024" version="1.1" xmlns="http://www.w3.org/2000/svg" p-id="3989" xmlns:xlink="http://www.w3.org/1999/xlink" width="200" height="200"><defs><style type="text/css"></style></defs><path d="M214.016 929.28l19.968-26.112c14.336 10.24 28.672 19.968 44.544 28.672l-16.384 28.672c-17.408-9.728-32.768-19.968-48.128-31.232z m-42.496-82.944c11.776 12.8 24.576 25.088 37.376 37.376l-22.016 24.064c-14.336-12.288-28.16-26.112-40.448-39.424l25.088-22.016zM291.84 976.896l14.336-28.672c15.872 7.68 32.256 14.336 49.152 20.48l-10.752 30.72c-17.92-6.656-35.328-14.336-52.736-22.528z m85.504 32.256l8.704-31.232c16.896 4.608 34.816 8.192 51.712 10.24l-4.608 32.256c-18.944-3.072-37.376-6.656-55.808-11.264z m-256-230.912c8.704 14.848 18.432 29.184 28.672 43.52l-26.112 19.968c-11.776-14.848-22.016-30.72-32.256-47.104l29.696-16.384z m-34.816-76.8c6.144 16.384 12.8 32.768 20.48 48.64l-28.672 14.336c-8.704-16.896-16.384-34.304-23.04-51.712l31.232-11.264z m380.928 322.56l2.048-32.768h28.672v32.768h-30.72z m46.592-927.232c256 4.608 459.776 216.064 455.168 471.552-4.608 255.488-216.064 459.776-471.552 455.168v-32.768c202.24 4.608 369.664-155.648 374.272-357.376 4.608-202.24-155.648-369.664-357.376-374.272v81.92c0 6.144-3.584 11.776-8.704 14.336-5.632 3.584-11.776 3.584-16.896 0L225.792 192c-4.608-2.56-7.68-8.192-7.68-13.824s2.56-10.752 7.68-13.824L488.96 2.048c5.632-2.56 11.776-2.56 16.896 0s8.192 8.192 8.704 14.336l-0.512 80.384z" fill="#28b3fc" p-id="3990"></path></svg>