<?xml version="1.0" standalone="no"?><!DOCTYPE svg PUBLIC "-//W3C//DTD SVG 1.1//EN" "http://www.w3.org/Graphics/SVG/1.1/DTD/svg11.dtd"><svg t="1559547693542" class="icon" style="" viewBox="0 0 1024 1024" version="1.1" xmlns="http://www.w3.org/2000/svg" p-id="3959" xmlns:xlink="http://www.w3.org/1999/xlink" width="200" height="200"><defs><style type="text/css"></style></defs><path d="M826.88 1023.488h-629.76C89.088 1023.488 0.512 934.912 0.512 826.88v-629.76C0.512 89.088 89.088 0.512 197.12 0.512h630.272C935.424 0.512 1024 89.088 1024 197.12v630.272c-0.512 107.52-89.088 196.096-197.12 196.096z" fill="#FFFFFF" p-id="3960"></path><path d="M1023.488 700.928V197.12c0-108.544-88.576-196.608-197.12-196.608h-629.76C87.552 0.512 0 89.088 0 197.12v629.76c0 108.544 87.552 196.608 196.608 196.608h629.76c96.768 0 177.664-70.144 194.048-162.304-52.224-22.528-278.016-120.32-395.776-176.128-89.6 108.544-183.808 173.568-325.12 173.568s-235.52-87.04-224.768-194.048c7.168-70.144 55.296-184.832 264.192-165.376 110.08 10.24 160.256 30.72 249.856 60.416 23.552-42.496 42.496-89.6 57.344-139.264H247.296v-39.424h196.608V311.296H204.8v-43.52h240.128V165.888s2.56-15.872 19.456-15.872H563.2v117.76h256v43.52h-256v70.656h208.896c-18.944 77.824-48.64 150.016-84.48 212.48 59.904 22.016 335.872 106.496 335.872 106.496zM283.648 791.552c-150.016 0-173.056-94.72-165.376-133.632s51.2-90.112 134.656-90.112c95.744 0 181.248 24.576 283.648 74.24-72.704 93.184-160.768 149.504-252.928 149.504z" fill="#1296DB" p-id="3961"></path></svg>